<?xml version="1.0" encoding="UTF-8" standalone="no"?>
<!-- Created with Inkscape (http://www.inkscape.org/) -->

<svg
   xmlns:dc="http://purl.org/dc/elements/1.1/"
   xmlns:cc="http://creativecommons.org/ns#"
   xmlns:rdf="http://www.w3.org/1999/02/22-rdf-syntax-ns#"
   xmlns:svg="http://www.w3.org/2000/svg"
   xmlns="http://www.w3.org/2000/svg"
   xmlns:sodipodi="http://sodipodi.sourceforge.net/DTD/sodipodi-0.dtd"
   xmlns:inkscape="http://www.inkscape.org/namespaces/inkscape"
   width="886.85431"
   height="567.95667"
   id="svg2"
   version="1.1"
   inkscape:version="0.48.4 r9939"
   sodipodi:docname="Modela Bed-bottom6mm.pdf">
  <defs
     id="defs4" />
  <sodipodi:namedview
     id="base"
     pagecolor="#ffffff"
     bordercolor="#666666"
     borderopacity="1.0"
     inkscape:pageopacity="0.0"
     inkscape:pageshadow="2"
     inkscape:zoom="1"
     inkscape:cx="606.96471"
     inkscape:cy="340.77911"
     inkscape:document-units="px"
     inkscape:current-layer="layer1"
     showgrid="false"
     fit-margin-top="0"
     fit-margin-left="0"
     fit-margin-right="0"
     fit-margin-bottom="0"
     inkscape:window-width="1920"
     inkscape:window-height="1018"
     inkscape:window-x="-8"
     inkscape:window-y="-8"
     inkscape:window-maximized="1"
     units="mm" />
  <metadata
     id="metadata7">
    <rdf:RDF>
      <cc:Work
         rdf:about="">
        <dc:format>image/svg+xml</dc:format>
        <dc:type
           rdf:resource="http://purl.org/dc/dcmitype/StillImage" />
        <dc:title></dc:title>
      </cc:Work>
    </rdf:RDF>
  </metadata>
  <g
     inkscape:label="Layer 1"
     inkscape:groupmode="layer"
     id="layer1"
     transform="translate(2121.7835,-231.6479)">
    <path
       style="fill:none;stroke:#ff0000;stroke-width:0.03543307;stroke-miterlimit:4;stroke-opacity:1;stroke-dasharray:none"
       d="m -2078.2798,231.70739 0,34.73488 -43.4412,0 0,533.0998 886.7323,0 0,-533.0998 -40.4524,0 0,-34.73488 -802.8387,0 z"
       id="rect2998"
       inkscape:connector-curvature="0" />
    <path
       style="fill:none;stroke:#ff0000;stroke-width:0.03543307;stroke-linecap:round;stroke-linejoin:bevel;stroke-miterlimit:4;stroke-opacity:1;stroke-dasharray:none;stroke-dashoffset:0"
       d="m -1271.2188,756.56086 c -4.3845,0 -7.9687,3.55418 -7.9687,7.9375 l -0.062,2.625 c 0,4.38332 3.5529,7.9375 7.9375,7.9375 4.3846,0 7.9375,-3.55418 7.9375,-7.9375 l 0.094,-2.625 c 0,-4.38198 -3.5543,-7.9375 -7.9376,-7.9375 z"
       id="path3771"
       inkscape:connector-curvature="0"
       sodipodi:nodetypes="sccsccss" />
    <g
       id="g3869"
       transform="translate(24.361016,-138.92624)"
       style="stroke-width:0.03543307;stroke-miterlimit:4;stroke-dasharray:none">
      <path
         sodipodi:nodetypes="sccsccss"
         inkscape:connector-curvature="0"
         id="path3771-0"
         d="m -2109.8364,895.23747 c 4.3845,0 7.9687,3.55418 7.9687,7.9375 l 0.062,2.625 c 0,4.38332 -3.5529,7.9375 -7.9375,7.9375 -4.3846,0 -7.9375,-3.55418 -7.9375,-7.9375 l -0.094,-2.625 c 0,-4.38198 3.5543,-7.9375 7.9376,-7.9375 z"
         style="fill:none;stroke:#ff0000;stroke-width:0.03543307;stroke-linecap:round;stroke-linejoin:bevel;stroke-miterlimit:4;stroke-opacity:1;stroke-dasharray:none;stroke-dashoffset:0" />
    </g>
    <path
       sodipodi:type="arc"
       style="fill:none;stroke:#ff0000;stroke-width:0.03543307;stroke-miterlimit:4;stroke-opacity:1;stroke-dasharray:none"
       id="path3863"
       sodipodi:cx="168.82175"
       sodipodi:cy="276.62866"
       sodipodi:rx="12.551146"
       sodipodi:ry="12.020815"
       d="m 181.37289,276.62866 a 12.551146,12.020815 0 1 1 -25.10229,0 12.551146,12.020815 0 1 1 25.10229,0 z"
       transform="matrix(0.54757205,0,0,0.57183433,-2060.2605,345.49774)" />
    <path
       sodipodi:type="arc"
       style="fill:none;stroke:#ff0000;stroke-width:0.03543307;stroke-miterlimit:4;stroke-opacity:1;stroke-dasharray:none"
       id="path3863-0"
       sodipodi:cx="168.82175"
       sodipodi:cy="276.62866"
       sodipodi:rx="12.551146"
       sodipodi:ry="12.020815"
       d="m 181.37289,276.62866 a 12.551146,12.020815 0 1 1 -25.10229,0 12.551146,12.020815 0 1 1 25.10229,0 z"
       transform="matrix(0.54757205,0,0,0.57183433,-1482.8338,345.7099)" />
  </g>
</svg>
